<svg width="1200" height="825" viewBox="0 0 1200 825" fill="none" xmlns="http://www.w3.org/2000/svg">
  <rect width="1200" height="825" rx="44" fill="#15110F"/>
  <g opacity="0.22">
    <path d="M-40 170C110 160 166 240 293 240C446 240 466 120 624 120C792 120 832 264 1014 264C1096 264 1164 240 1248 188" stroke="#F2E3CF" stroke-width="44" stroke-linecap="round"/>
    <path d="M-34 618C124 578 212 662 332 662C520 662 548 430 748 430C920 430 962 574 1120 574C1166 574 1208 566 1244 554" stroke="#F2E3CF" stroke-width="40" stroke-linecap="round"/>
    <path d="M214 -20C206 108 296 184 296 316C296 464 186 552 186 700C186 756 200 794 214 838" stroke="#D7C1A6" stroke-width="28" stroke-linecap="round"/>
    <path d="M878 -30C878 126 984 184 984 348C984 488 888 560 888 704C888 750 898 792 920 846" stroke="#D7C1A6" stroke-width="28" stroke-linecap="round"/>
  </g>
  <g opacity="0.18">
    <rect x="398" y="124" width="94" height="94" rx="18" fill="#2B221D"/>
    <rect x="540" y="200" width="108" height="108" rx="20" fill="#2B221D"/>
    <rect x="718" y="124" width="112" height="112" rx="22" fill="#2B221D"/>
    <rect x="340" y="520" width="120" height="120" rx="24" fill="#2B221D"/>
    <rect x="522" y="562" width="98" height="98" rx="20" fill="#2B221D"/>
    <rect x="714" y="510" width="120" height="120" rx="24" fill="#2B221D"/>
  </g>
  <g filter="url(#shadow)">
    <path d="M598 188C520.68 188 458 250.68 458 328C458 430.247 598 588 598 588C598 588 738 430.247 738 328C738 250.68 675.32 188 598 188Z" fill="#D4A56D"/>
    <circle cx="598" cy="328" r="58" fill="#15110F"/>
    <circle cx="598" cy="328" r="29" fill="#F2E3CF"/>
  </g>
  <defs>
    <filter id="shadow" x="402" y="148" width="392" height="498" filterUnits="userSpaceOnUse" color-interpolation-filters="sRGB">
      <feFlood flood-opacity="0" result="BackgroundImageFix"/>
      <feColorMatrix in="SourceAlpha" type="matrix" values="0 0 0 0 0 0 0 0 0 0 0 0 0 0 0 0 0 0 127 0" result="hardAlpha"/>
      <feOffset dy="14"/>
      <feGaussianBlur stdDeviation="28"/>
      <feComposite in2="hardAlpha" operator="out"/>
      <feColorMatrix type="matrix" values="0 0 0 0 0 0 0 0 0 0 0 0 0 0 0 0 0 0 0.46 0"/>
      <feBlend mode="normal" in2="BackgroundImageFix" result="effect1_dropShadow_1_1"/>
      <feBlend mode="normal" in="SourceGraphic" in2="effect1_dropShadow_1_1" result="shape"/>
    </filter>
  </defs>
</svg>
